<?xml version="1.0" encoding="utf-8"?>
<!-- Generator: Adobe Illustrator 18.1.1, SVG Export Plug-In . SVG Version: 6.00 Build 0)  -->
<svg version="1.1" id="Capa_1" xmlns="http://www.w3.org/2000/svg" xmlns:xlink="http://www.w3.org/1999/xlink" x="0px" y="0px"
	 viewBox="2 89.5 615.5 615.5" enable-background="new 2 89.5 615.5 615.5" xml:space="preserve">
<g>
	<g id="Search__x28_and_thou_shall_find_x29_">
		<g>
			<path fill="#A696C9" d="M604.5,639.2L420.2,453.8c26.7-37.7,42.5-83.7,42.5-133.5c0-127.5-102.8-230.8-229.5-230.8
				C106.5,89.5,3.8,192.8,3.8,320.3s102.8,230.8,229.5,230.8c49.5,0,95.3-15.9,132.8-42.8l184.3,185.4c7.5,7.5,17.3,11.3,27.1,11.3
				c9.8,0,19.6-3.8,27.1-11.3C619.5,678.7,619.5,654.3,604.5,639.2z M357.9,409.2l-15,21.3l-21.2,15.1
				c-26.1,18.7-56.7,28.5-88.4,28.5c-84.4,0-153-69-153-153.9c0-84.8,68.6-153.9,153-153.9s153,69,153,153.9
				C386.3,352.2,376.5,383,357.9,409.2z"/>
		</g>
	</g>
</g>
</svg>
